<?xml version="1.0"?>
<svg xmlns="http://www.w3.org/2000/svg" xmlns:xlink="http://www.w3.org/1999/xlink" version="1.1" id="Capa_1" x="0px" y="0px" viewBox="0 0 510 510" style="enable-background:new 0 0 510 510;" xml:space="preserve" width="512px" height="512px" class=""><g><g>
	<g>
		<path style="fill:#5B61CF" d="M234.375,305.625V493.95c0,4.722-3.828,8.55-8.55,8.55h0c-3.818,0-7.173-2.531-8.221-6.201    l-12.971-20.049c-0.152-0.534-0.64-0.901-1.195-0.901l0,0c-0.555,0-1.043,0.368-1.195,0.901l-12.971,20.049    c-1.049,3.671-4.404,6.201-8.221,6.201h0c-4.722,0-8.55-3.828-8.55-8.55V283.125" data-original="#FE3934" class="" data-old_color="#5b61cf"/>
	</g>
	<g>
		<path style="fill:#5B61CF" d="M270,305.625V493.95c0,4.722,3.828,8.55,8.55,8.55l0,0c3.818,0,7.173-2.531,8.221-6.201    l12.971-20.049c0.152-0.534,0.64-0.901,1.195-0.901l0,0c0.555,0,1.043,0.368,1.195,0.901l12.971,20.049    c1.049,3.671,4.404,6.201,8.221,6.201l0,0c4.722,0,8.55-3.828,8.55-8.55V283.125" data-original="#FE3934" class="" data-old_color="#5b61cf"/>
	</g>
	<g>
		<circle style="fill:#44C9F7;" cx="255" cy="157.5" r="150" data-original="#44C9F7" class=""/>
	</g>
	<g>
		<circle style="fill:#5B61CF" cx="255" cy="157.5" r="120" data-original="#FE3934" class="" data-old_color="#5b61cf"/>
	</g>
	<g>
		<path style="fill:#5B61CF" d="M257.943,99.346l11.452,35.246c0.414,1.275,1.603,2.139,2.943,2.139h37.059    c2.998,0,4.245,3.837,1.819,5.599l-29.982,21.783c-1.085,0.788-1.539,2.185-1.124,3.46l11.452,35.246    c0.926,2.851-2.337,5.222-4.763,3.46l-29.982-21.783c-1.085-0.788-2.554-0.788-3.638,0l-29.982,21.783    c-2.426,1.762-5.689-0.609-4.763-3.46l11.452-35.246c0.414-1.275-0.04-2.672-1.124-3.46l-29.982-21.783    c-2.426-1.762-1.179-5.599,1.819-5.599h37.059c1.341,0,2.529-0.863,2.943-2.139l11.452-35.246    C252.983,96.495,257.017,96.495,257.943,99.346z" data-original="#FEF0BD" class="active-path" data-old_color="#5b61cf"/>
	</g>
	<g>
		<path style="fill:#FFFFFF;" d="M255,285c-6.522,0-13.075-0.498-19.475-1.479l2.274-14.826c9.065,1.389,18.496,1.668,27.647,0.828    l1.375,14.937C262.919,284.818,258.941,285,255,285z M282.331,282.062l-3.201-14.654c9.02-1.97,17.786-5.063,26.056-9.192    l6.701,13.42C302.507,276.319,292.563,279.827,282.331,282.062z M220.185,280.187c-10.072-2.853-19.786-6.961-28.873-12.21    l7.503-12.988c8.013,4.628,16.578,8.25,25.458,10.766L220.185,280.187z M325.464,263.775l-8.3-12.495    c7.694-5.11,14.755-11.167,20.988-18.003l11.084,10.106C342.177,251.125,334.179,257.986,325.464,263.775z M178.229,259.305    c-8.354-6.309-15.924-13.64-22.5-21.789l11.673-9.42c5.807,7.196,12.491,13.668,19.867,19.239L178.229,259.305z M359.08,231.162    l-12.237-8.675c5.355-7.554,9.762-15.746,13.095-24.348l13.986,5.421C370.144,213.314,365.15,222.601,359.08,231.162z     M146.644,224.726c-5.539-8.911-9.959-18.483-13.138-28.452l14.291-4.557c2.803,8.789,6.701,17.23,11.586,25.089L146.644,224.726z     M378.682,188.587l-14.55-3.646c2.235-8.918,3.368-18.151,3.368-27.44v-0.273h15v0.273    C382.5,168.018,381.215,178.477,378.682,188.587z M129.672,181.05c-1.441-7.715-2.172-15.639-2.172-23.55    c0-2.56,0.077-5.151,0.229-7.702l14.974,0.893c-0.134,2.255-0.203,4.546-0.203,6.81c0,6.989,0.645,13.986,1.917,20.796    L129.672,181.05z M366.628,143.416c-1.146-9.18-3.427-18.192-6.78-26.787l13.975-5.451c3.803,9.749,6.39,19.97,7.69,30.379    L366.628,143.416z M144.372,136.944l-14.751-2.723c1.903-10.31,5.086-20.366,9.462-29.891l13.63,6.262    C148.856,118.989,146.049,127.854,144.372,136.944z M354.033,104.078c-4.388-8.117-9.782-15.694-16.032-22.521l11.063-10.129    c7.08,7.733,13.191,16.318,18.164,25.516L354.033,104.078z M159.262,98.388l-12.755-7.894c5.504-8.895,12.106-17.11,19.623-24.418    l10.456,10.755C169.95,83.283,164.121,90.536,159.262,98.388z M328.038,71.93c-7.04-6.015-14.8-11.146-23.064-15.251l6.673-13.434    c9.366,4.652,18.16,10.467,26.136,17.281L328.038,71.93z M187.09,67.8l-9.063-11.952c8.357-6.337,17.471-11.626,27.09-15.719    l5.873,13.803C202.505,57.542,194.464,62.208,187.09,67.8z M292.212,51.298c-8.699-3.048-17.786-5.014-27.009-5.842l1.343-14.939    c10.455,0.939,20.759,3.168,30.626,6.625L292.212,51.298z M224.037,49.313l-4.119-14.423c10.036-2.866,20.45-4.489,30.954-4.824    l0.478,14.992C242.077,45.354,232.888,46.785,224.037,49.313z" data-original="#FFFFFF"/>
	</g>
	<g>
		<rect x="195" y="405" style="fill:#FFFFFF;" width="15" height="15" data-original="#FFFFFF"/>
	</g>
	<path d="M412.5,157.5C412.5,70.654,341.846,0,255,0S97.5,70.654,97.5,157.5c0,53.407,26.726,100.682,67.5,129.176V493.95   c0,8.85,7.2,16.05,16.05,16.05c6.695,0,12.701-4.223,15.028-10.416l7.359-11.374l7.359,11.374   c2.328,6.193,8.333,10.416,15.028,10.416c8.85,0,16.05-7.2,16.05-16.05V314.449C246.204,314.808,250.58,315,255,315   c2.515,0,5.014-0.065,7.5-0.183V493.95c0,8.85,7.2,16.05,16.05,16.05c6.695,0,12.701-4.223,15.028-10.416l7.359-11.374   l7.359,11.374c2.328,6.193,8.333,10.416,15.028,10.416c8.85,0,16.05-7.2,16.05-16.05V290.437   C383.3,262.458,412.5,213.327,412.5,157.5z M226.875,493.95c0,0.579-0.471,1.05-1.05,1.05c-0.467,0-0.882-0.313-1.01-0.762   l-0.307-1.075l-13.255-20.488c-0.337-0.669-0.765-1.28-1.252-1.833V435h-15v38.638l-12.632,19.525l-0.307,1.075   c-0.128,0.449-0.543,0.762-1.01,0.762c-0.579,0-1.05-0.471-1.05-1.05v-197.98c14.42,7.842,30.195,13.493,46.875,16.512V493.95z    M324.375,493.95c0,0.579-0.471,1.05-1.05,1.05c-0.467,0-0.882-0.313-1.01-0.762l-0.307-1.075l-13.255-20.488   c-0.337-0.669-0.765-1.28-1.252-1.833V435h-15v38.638l-12.632,19.525l-0.307,1.075c-0.128,0.449-0.543,0.762-1.01,0.762   c-0.579,0-1.05-0.471-1.05-1.05V313.386c16.595-2.384,32.361-7.363,46.875-14.515V493.95z M255,300   c-78.575,0-142.5-63.925-142.5-142.5S176.425,15,255,15s142.5,63.925,142.5,142.5S333.575,300,255,300z" data-original="#000000"/>
	<g>
		<rect x="292.5" y="405" style="fill:#FFFFFF;" width="15" height="15" data-original="#FFFFFF"/>
	</g>
	<g>
		<path d="M221.38,214.375c-2.183,0-4.365-0.676-6.227-2.029c-3.725-2.706-5.272-7.466-3.85-11.845l10.463-32.202l-27.393-19.902    c-3.725-2.706-5.271-7.467-3.849-11.845c1.423-4.379,5.473-7.321,10.077-7.321h33.858l10.463-32.202    c1.422-4.378,5.472-7.321,10.076-7.321s8.653,2.942,10.076,7.321l10.463,32.202h33.858c4.604,0,8.654,2.942,10.077,7.321    c1.423,4.378-0.124,9.139-3.849,11.845l-27.393,19.902l10.463,32.201c1.423,4.38-0.125,9.14-3.85,11.846    c-3.725,2.706-8.729,2.706-12.455,0L255,192.443l-27.392,19.902C225.746,213.699,223.563,214.375,221.38,214.375z M214.159,144.23    l19.013,13.814c3.725,2.705,5.272,7.465,3.85,11.844l-7.263,22.353l19.014-13.814c3.725-2.707,8.73-2.706,12.455-0.001    l19.014,13.815l-7.263-22.352c-1.423-4.38,0.125-9.14,3.85-11.846l19.013-13.814h-23.502c-4.605,0-8.655-2.943-10.077-7.323    L255,114.558l-7.263,22.352c-1.421,4.378-5.471,7.321-10.076,7.321H214.159z M250.81,101.663c0.001,0.005,0.003,0.009,0.005,0.014    L250.81,101.663z" data-original="#000000"/>
	</g>
	<g>
		<rect x="247.5" y="232.5" width="15" height="15" data-original="#000000"/>
	</g>
	<g>
		<rect x="325.962" y="175.494" transform="matrix(0.9511 0.309 -0.309 0.9511 72.8617 -94.0822)" width="15" height="15" data-original="#000000"/>
	</g>
	<g>
		<rect x="295.992" y="83.256" transform="matrix(0.809 0.5878 -0.5878 0.809 111.3086 -161.0567)" width="15" height="14.999" data-original="#000000"/>
	</g>
	<g>
		<rect x="199.008" y="83.256" transform="matrix(0.5878 0.809 -0.809 0.5878 158.5489 -129.6572)" width="14.999" height="15" data-original="#000000"/>
	</g>
	<g>
		<rect x="169.038" y="175.494" transform="matrix(0.309 0.9511 -0.9511 0.309 296.0234 -41.4511)" width="15" height="15" data-original="#000000"/>
	</g>
</g></g> </svg>
