<?xml version="1.0"?>
<svg xmlns="http://www.w3.org/2000/svg" height="512px" viewBox="0 0 512 512" width="512px" class=""><g><path d="m512 273.523438c-14.332031-5.234376-29.808594-8.09375-45.953125-8.09375-73.949219 0-133.898437 59.949218-133.898437 133.894531l.203124 112.675781h179.648438zm0 0" fill="#f54432" data-original="#F54432" class="active-path" style="fill:#5B61CF" data-old_color="#5b61cf"/><path d="m208.992188 276.757812v-208.414062h-195.90625v71.199219c0 66.605469 52.941406 97.132812 52.941406 97.132812l-43.082032 179.644531c-11.699218 48.785157 25.28125 95.679688 75.449219 95.679688h49.558594zm0 0" fill="#ffc2b6" data-original="#FFC2B6" class="" style="fill:#FFC2B6"/><path d="m30.578125 138.261719c-16.886719 0-30.578125-13.691407-30.578125-30.578125v-62.324219c0-16.582031 13.441406-30.023437 30.019531-30.023437h1.113281c16.582032 0 30.019532 13.441406 30.019532 30.023437v62.324219c0 16.886718-13.6875 30.578125-30.574219 30.578125zm0 0" fill="#ffddcf" data-original="#FFDDCF" class="" style="fill:#FFDDCF"/><path d="m28.035156 107.683594v-62.324219c0-11.738281 6.742188-21.898437 16.558594-26.832031-4.046875-2.035156-8.617188-3.1875-13.460938-3.1875h-1.113281c-16.578125-.003906-30.019531 13.4375-30.019531 30.019531v62.324219c0 16.886718 13.691406 30.578125 30.578125 30.578125 5.054687 0 9.816406-1.234375 14.015625-3.40625-9.832031-5.082031-16.558594-15.339844-16.558594-27.171875zm0 0" fill="#ffcbbe" data-original="#FFCBBE" class="" style="fill:#FFCBBE"/><path d="m91.730469 122.925781c-16.886719 0-30.578125-13.691406-30.578125-30.578125v-62.328125c0-16.578125 13.441406-30.019531 30.023437-30.019531h1.109375c16.582032 0 30.023438 13.441406 30.023438 30.019531v62.328125c-.003906 16.886719-13.691406 30.578125-30.578125 30.578125zm0 0" fill="#ffddcf" data-original="#FFDDCF" class="" style="fill:#FFDDCF"/><path d="m89.1875 92.347656v-62.328125c0-11.738281 6.742188-21.894531 16.558594-26.828125-4.046875-2.039062-8.617188-3.191406-13.460938-3.191406h-1.109375c-16.582031 0-30.023437 13.441406-30.023437 30.019531v62.328125c0 16.886719 13.691406 30.578125 30.578125 30.578125 5.054687 0 9.816406-1.234375 14.015625-3.40625-9.832032-5.085937-16.558594-15.339843-16.558594-27.171875zm0 0" fill="#ffcbbe" data-original="#FFCBBE" class="" style="fill:#FFCBBE"/><path d="m152.882812 122.925781c-16.886718 0-30.578124-13.691406-30.578124-30.578125v-62.328125c0-16.578125 13.441406-30.019531 30.023437-30.019531h1.109375c16.582031 0 30.023438 13.441406 30.023438 30.019531v62.328125c0 16.886719-13.691407 30.578125-30.578126 30.578125zm0 0" fill="#ffddcf" data-original="#FFDDCF" class="" style="fill:#FFDDCF"/><path d="m150.34375 92.347656v-62.328125c0-11.738281 6.742188-21.894531 16.558594-26.828125-4.050782-2.039062-8.621094-3.191406-13.464844-3.191406h-1.109375c-16.582031 0-30.023437 13.441406-30.023437 30.019531v62.328125c0 16.886719 13.691406 30.578125 30.578124 30.578125 5.054688 0 9.816407-1.234375 14.019532-3.40625-9.835938-5.085937-16.558594-15.339843-16.558594-27.171875zm0 0" fill="#ffcbbe" data-original="#FFCBBE" class="" style="fill:#FFCBBE"/><path d="m214.035156 138.261719c-16.886718 0-30.574218-13.691407-30.574218-30.578125v-62.324219c0-16.582031 13.4375-30.023437 30.019531-30.023437h1.113281c16.578125 0 30.019531 13.441406 30.019531 30.023437v62.324219c0 16.886718-13.691406 30.578125-30.578125 30.578125zm0 0" fill="#ffddcf" data-original="#FFDDCF" class="" style="fill:#FFDDCF"/><path d="m122.105469 447.234375c0-73.949219 59.945312-133.894531 133.894531-133.894531s133.894531 59.945312 133.894531 133.894531v64.765625h-267.589843zm0 0" fill="#f54432" data-original="#F54432" class="active-path" style="fill:#5B61CF" data-old_color="#5b61cf"/><path d="m211.496094 107.683594v-62.324219c0-11.738281 6.742187-21.898437 16.558594-26.832031-4.050782-2.035156-8.621094-3.1875-13.460938-3.1875h-1.113281c-16.578125 0-30.019531 13.4375-30.019531 30.019531v62.324219c0 16.886718 13.6875 30.578125 30.574218 30.578125 5.054688 0 9.820313-1.234375 14.019532-3.40625-9.832032-5.082031-16.558594-15.339844-16.558594-27.171875zm0 0" fill="#ffcbbe" data-original="#FFCBBE" class="" style="fill:#FFCBBE"/><path d="m87.089844 440.664062 41.332031-259.273437c3.390625-21.28125 21.75-36.945313 43.300781-36.945313h42.847656-18.003906c-20.265625 0-38.929687-11.007812-48.734375-28.742187-6.074219-10.984375 1.871094-24.457031 14.421875-24.457031h83.933594c9.167969 0 16.597656 7.433594 16.597656 16.597656v44.117188c0 16.867187-10.671875 31.890624-26.597656 37.441406-15.929688 5.554687-26.597656 20.578125-26.597656 37.445312v223.515625c0 34.039063-27.597656 61.632813-61.636719 61.632813-37.90625.003906-66.832031-33.894532-60.863281-71.332032zm0 0" fill="#ffddcf" data-original="#FFDDCF" class="" style="fill:#FFDDCF"/><path d="m66.027344 236.675781-43.082032 179.644531c-11.699218 48.785157 25.28125 95.679688 75.449219 95.679688h49.558594c34.039063 0 61.632813-27.59375 61.632813-61.632812v-213.691407zm0 0" fill="#f85647" data-original="#F85647" class="" style="fill:#5B61CF" data-old_color="#5b61cf"/><path d="m87.089844 440.664062c-5.96875 37.4375 22.957031 71.335938 60.863281 71.335938 4.257813 0 8.410156-.429688 12.421875-1.253906 7.019531-1.433594 13.609375-4.066406 19.539062-7.667969 1.691407-1.03125 3.332032-2.140625 4.914063-3.324219.792969-.589844 1.570313-1.199218 2.328125-1.828125 1.523438-1.257812 2.984375-2.585937 4.378906-3.980469.695313-.695312 1.378906-1.410156 2.039063-2.140624 1.328125-1.457032 2.585937-2.980469 3.769531-4.5625 4.730469-6.328126 8.277344-13.597657 10.304688-21.472657.503906-1.96875.917968-3.980469 1.230468-6.019531.464844-3.058594.707032-6.195312.707032-9.386719v-213.6875h-89.980469zm0 0" fill="#fb695b" data-original="#FB695B" class="" style="fill:#5B61CF" data-old_color="#5b61cf"/></g> </svg>
